<?xml version="1.0" encoding="UTF-8"?>
<svg version="1.1" xmlns="http://www.w3.org/2000/svg" width="4418" height="3859">
<path d="M0 0 C764.94 0 1529.88 0 2318 0 C2318 764.61 2318 1529.22 2318 2317 C1553.06 2317 788.12 2317 0 2317 C0 1552.39 0 787.78 0 0 Z " fill="#09090B" transform="translate(1051,497)"/>
<path d="M0 0 C460.78105242 0 460.78105242 0 523.5625 7.5 C524.85707123 7.65246689 524.85707123 7.65246689 526.17779541 7.80801392 C535.72641451 8.93964546 545.11686905 10.29886665 554.5300293 12.28125 C557.86850416 12.9727627 561.20843288 13.57505156 564.5703125 14.140625 C608.17688102 21.48808281 651.04452137 33.86501431 691 53 C691.8254834 53.39155273 692.6509668 53.78310547 693.50146484 54.18652344 C717.75024067 65.74953239 739.95806494 80.09467723 760 98 C760.90363281 98.79277344 761.80726563 99.58554688 762.73828125 100.40234375 C772.36869869 108.92443944 781.03136767 117.90639905 789 128 C789.88457582 129.09443015 790.7700254 130.18815453 791.65625 131.28125 C802.68504768 144.97270898 811.7801046 159.47046607 820 175 C820.35835937 175.67675781 820.71671875 176.35351562 821.0859375 177.05078125 C842.70348202 218.25414617 853.47046783 263.09739631 859.6875 308.9375 C859.84187027 310.05378784 859.84187027 310.05378784 859.99935913 311.19262695 C863.19800567 334.56429499 864.34234253 357.99799578 864.26074219 381.57421875 C864.24996146 385.26318625 864.26075733 388.95167142 864.2734375 392.640625 C864.32462183 479.4027491 840.78184263 564.89659232 778.625 627.6875 C771.17443761 635.11388414 763.50855081 641.82942928 755 648 C753.85115255 648.85491814 752.70272016 649.71039429 751.5546875 650.56640625 C743.36377611 656.60912656 734.85694675 661.99076064 726 667 C725.30342285 667.39687012 724.6068457 667.79374023 723.88916016 668.20263672 C710.44413791 675.78708538 696.42673207 681.55683033 682 687 C681.18724609 687.30953613 680.37449219 687.61907227 679.53710938 687.93798828 C663.54712555 693.98476726 647.1688301 697.86755179 630.4375 701.25 C629.16495361 701.50845703 627.89240723 701.76691406 626.58129883 702.03320312 C619.73285151 703.38513719 612.96518194 704.49388302 606 705 C607.1859375 705.35191406 608.371875 705.70382812 609.59375 706.06640625 C668.75339806 723.949593 698.87177771 771.19982767 726.91259766 823.42630005 C742.25510041 852.21875055 756.76067991 881.42783559 771.3125 910.625 C775.04976469 918.12340428 778.78847366 925.62108205 782.53056908 933.11707687 C783.99988161 936.06204353 785.46672941 939.00822813 786.9334259 941.95449829 C791.0312973 950.17244039 795.16522387 958.36165803 799.4831543 966.46630859 C807.57397631 981.69658048 815.15182187 997.19711804 822.84859657 1012.62873077 C825.1710687 1017.28378151 827.49621954 1021.93749379 829.82116699 1026.59130859 C836.21590449 1039.39273806 842.60659601 1052.19618623 848.99723053 1064.99966431 C854.86247708 1076.75043447 860.72861709 1088.50075643 866.59801722 1100.24945259 C869.34845432 1105.75525362 872.09694962 1111.2620179 874.84386444 1116.76957703 C876.56386117 1120.21712544 878.28558392 1123.66380987 880.0077343 1127.1102829 C880.79441616 1128.68548978 881.58041888 1130.26103609 882.36561775 1131.83698273 C886.89127373 1140.91921867 891.52523746 1149.93426894 896.27035606 1158.90383571 C900.57763512 1167.06107801 904.72221078 1175.29609221 908.84619141 1183.54711914 C909.67508673 1185.20190584 910.50414253 1186.85661216 911.33334351 1188.51124573 C913.54946244 1192.93478148 915.7630868 1197.35956062 917.97598314 1201.78470922 C919.36089623 1204.55381888 920.74638039 1207.32264206 922.132061 1210.09136772 C926.9710682 1219.76018644 931.80805405 1229.4300131 936.64306641 1239.10083008 C941.14641008 1248.10812212 945.65424798 1257.11315522 950.16411459 1266.11718279 C954.0482327 1273.87237444 957.92929031 1281.62909244 961.80793512 1289.38702291 C964.11983101 1294.01106987 966.43297029 1298.63448451 968.7491951 1303.25636482 C970.91805906 1307.58445967 973.08312555 1311.91443233 975.24521255 1316.24591637 C976.04042281 1317.83738753 976.83701219 1319.4281704 977.63504791 1321.01822662 C978.71982934 1323.18013678 979.79970738 1325.34442504 980.87832642 1327.50941467 C981.19834488 1328.14430803 981.51836334 1328.77920138 981.84807932 1329.43333393 C984 1333.7717246 984 1333.7717246 984 1336 C888.3 1336 792.6 1336 694 1336 C689.71 1326.76 685.42 1317.52 681 1308 C678.51284015 1302.8369992 676.02648723 1297.67762975 673.49932861 1292.53479004 C668.0786763 1281.4974904 662.75806278 1270.42428282 657.625 1259.25 C652.02171704 1247.05714193 646.15416639 1235.00325737 640.25253296 1222.95281982 C634.67188497 1211.55238651 629.2186943 1200.10981749 623.921875 1188.57421875 C619.42124076 1178.81339738 614.72266839 1169.15487414 610 1159.5 C604.74456697 1148.75595866 599.55367425 1137.99495423 594.5625 1127.125 C589.37607442 1115.83219161 583.96544371 1104.65973935 578.5 1093.5 C573.03455302 1082.34025398 567.62413143 1071.16771874 562.4375 1059.875 C557.39813787 1048.90482154 552.17024839 1038.0359732 546.875 1027.1875 C546.48318542 1026.38468597 546.09137085 1025.58187195 545.68768311 1024.75473022 C544.15259613 1021.60985724 542.61729873 1018.46508713 541.081604 1015.32051086 C538.21801874 1009.4542131 535.37628592 1003.57787041 532.5625 997.6875 C532.15555908 996.83631592 531.74861816 995.98513184 531.3293457 995.1081543 C528.7816112 989.76687228 526.25259898 984.41690355 523.73022461 979.06361389 C494.46878484 916.67880437 494.46878484 916.67880437 453 862 C451.80671034 860.63002152 450.6189883 859.25516907 449.4375 857.875 C442.21701723 849.65349576 434.33961945 842.82767823 425.63525391 836.23828125 C424.26379568 835.19975689 422.90216992 834.14826538 421.54296875 833.09375 C375.51254247 798.91353854 320.32573542 808.58067768 264 808 C264 982.24 264 1156.48 264 1336 C176.88 1336 89.76 1336 0 1336 C0 895.12 0 454.24 0 0 Z " fill="#21C45D" transform="translate(1224,973)"/>
<path d="M0 0 C71.94 0 143.88 0 218 0 C225.00754842 40.87736576 225.00754842 40.87736576 227.1875 55.25 C227.31106873 56.05621796 227.43463745 56.86243591 227.56195068 57.69308472 C228.87636399 66.26903963 230.15762241 74.84465448 231.23413086 83.4543457 C231.36311768 84.48003662 231.49210449 85.50572754 231.625 86.5625 C231.7189505 87.32889801 231.812901 88.09529602 231.90969849 88.88491821 C232.68529843 95.02982504 233.71387558 101.08946464 234.875 107.171875 C236.87920583 117.94064521 238.46079161 128.74489717 239.94970703 139.59521484 C242.0603045 154.9412697 244.27623665 170.25027092 247 185.5 C249.68020218 200.51555534 251.83701366 215.58754817 253.94573975 230.69296265 C255.89775045 244.64752015 258.03389739 258.54208169 260.49850464 272.41488647 C262.4369316 283.35149872 264.07975152 294.30509113 265.5625 305.3125 C267.17106347 317.24484539 268.95423029 329.12245669 270.98242188 340.99243164 C272.95139806 352.56169067 274.76602458 364.15286078 276.5625 375.75 C276.7754068 377.12307816 276.7754068 377.12307816 276.99261475 378.52389526 C278.48116472 388.12824758 279.95936985 397.73418637 281.43589783 407.34039307 C283.77581159 422.56256621 286.13560672 437.78161188 288.5 453 C289.26063222 457.89579988 290.02106973 462.79162992 290.78125 467.6875 C291.06162865 469.49277412 291.06162865 469.49277412 291.34767151 471.33451843 C292.407085 478.16107792 293.45934614 484.98868598 294.50538635 491.81730652 C296.05804329 501.94952882 297.6400203 512.07656123 299.25390625 522.19921875 C299.53825027 523.98514938 299.53825027 523.98514938 299.82833862 525.80715942 C300.59984558 530.65175547 301.37149418 535.49632115 302.14819336 540.34008789 C304.09779496 552.50778531 306.00576292 564.66507753 307.52734375 576.89453125 C308.56449357 585.22441222 309.93618708 593.44358621 311.4924469 601.69094849 C313.28322813 611.28404993 314.62324643 620.9287699 315.94970703 630.59521484 C318.06030128 645.94124628 320.27580797 661.25035941 323 676.5 C325.9285095 692.8969313 328.26794579 709.36746704 330.55273438 725.86523438 C331.80486999 734.87548482 333.08010372 743.87374658 334.64453125 752.8359375 C334.76648361 753.54029938 334.88843597 754.24466125 335.01408386 754.97036743 C335.65907859 758.59329851 335.65907859 758.59329851 337 762 C340.88794745 745.20929512 344.57929216 728.39222776 348 711.5 C350.65310862 698.40435806 353.44974107 685.3583629 356.43017578 672.33300781 C358.48808045 663.32108573 360.46369985 654.29399541 362.375 645.25 C362.51657532 644.58040253 362.65815063 643.91080505 362.80401611 643.22091675 C364.41675394 635.58469071 366.01271738 627.94499183 367.60205078 620.30386353 C368.36027622 616.65913255 369.11996933 613.01470769 369.87945557 609.37023926 C370.40590908 606.83936998 370.9294456 604.30791249 371.45263672 601.77636719 C373.78247113 590.55263293 376.24168889 579.3594537 378.73828125 568.171875 C382.78731688 550.02668253 386.73613418 531.86074392 390.64697266 513.68530273 C391.38778446 510.24287602 392.13036947 506.80083916 392.87451172 503.35913086 C398.05974299 479.48918476 398.05974299 479.48918476 402.76916504 455.52220154 C404.07022935 448.51019593 405.6256924 441.56910929 407.25 434.625 C410.01216283 422.6174319 412.55606922 410.57615326 415 398.5 C417.62177766 385.55171206 420.39356342 372.65674716 423.35546875 359.78125 C425.72902288 349.38486812 427.88335541 338.95121032 430 328.5 C433.18929014 312.75390338 436.62348626 297.08113019 440.22900391 281.42529297 C441.32620001 276.55079603 442.34562102 271.66053383 443.3581543 266.76782227 C444 264 444 264 445 262 C514.96 262 584.92 262 657 262 C659.60826422 271.78099083 661.98218006 281.34459676 663.875 291.25 C664.39085491 293.89112451 664.90825849 296.53185426 665.4296875 299.171875 C665.55986267 299.83147217 665.69003784 300.49106934 665.82415771 301.1706543 C667.1100354 307.63812655 668.54266511 314.06940241 670 320.5 C672.42868462 331.2368429 674.62316873 342.00827869 676.75 352.80859375 C678.386296 361.06677515 680.14304679 369.28878504 682 377.5 C684.42814898 388.23697127 686.62316546 399.0082621 688.75 409.80859375 C690.38629644 418.06677732 692.14312176 426.28876721 694 434.5 C696.11838621 443.87081649 698.0815531 453.26122723 699.9375 462.6875 C702.07106455 473.51601833 704.35472057 484.30125788 706.74533081 495.07577515 C709.46534721 507.35687755 711.99917142 519.67257966 714.5 532 C717.07458407 544.68843345 719.69414104 557.36052318 722.5 570 C725.51659558 583.58877636 728.31258468 597.21749847 731.07998657 610.85894775 C733.52159664 622.88622891 736.02914162 634.89373774 738.6875 646.875 C741.20969793 658.24464586 743.55174755 669.6394547 745.80151367 681.06591797 C747.638901 690.34151389 749.65843824 699.56647407 751.74365234 708.7890625 C753.95860953 718.65397345 755.95706171 728.55693839 757.90820312 738.4765625 C759.52086034 746.67084873 761.22577112 754.83916888 763 763 C764.47345213 755.87815241 765.7565609 748.73824645 766.9375 741.5625 C767.09412109 740.62212891 767.25074219 739.68175781 767.41210938 738.71289062 C769.74814056 724.61294143 771.93132445 710.48931778 774.08687019 696.36084938 C774.41120824 694.23529324 774.73587973 692.10978828 775.06065369 689.98429871 C775.2806713 688.54422014 775.50068777 687.10414141 775.72070312 685.6640625 C775.8306791 684.94430394 775.94065508 684.22454538 776.05396366 683.48297596 C776.61788908 679.7909498 777.18068909 676.09875744 777.74145508 672.40625 C778.29339826 668.77238944 778.84834125 665.13899782 779.40524101 661.50589371 C779.61401842 660.1402852 779.82172727 658.77451283 780.02827644 657.40856552 C781.02051228 650.84986342 782.06265613 644.35004016 783.57447815 637.88986206 C784.18765377 635.1665769 784.58521248 632.42852279 784.96484375 629.6640625 C785.20279663 627.95851196 785.20279663 627.95851196 785.44555664 626.21850586 C785.60789795 625.03264893 785.77023926 623.84679199 785.9375 622.625 C786.28800526 620.11834152 786.63957028 617.61183101 786.9921875 615.10546875 C787.24887207 613.28088135 787.24887207 613.28088135 787.51074219 611.41943359 C788.47544828 604.67708154 789.55501809 597.95363976 790.64111328 591.22998047 C791.12581858 588.21821301 791.60117145 585.20499987 792.07592773 582.19165039 C792.93615721 576.73164466 793.79876459 571.27201393 794.66210938 565.8125 C796.78620195 552.37679628 798.89362858 538.93849161 801 525.5 C803.56445521 509.13896818 806.13552549 492.77902791 808.72460938 476.421875 C810.32937844 466.28327103 811.91666083 456.1419688 813.5 446 C815.20250472 435.09472459 816.91216305 424.19063929 818.63772583 413.28898621 C821.10578573 397.69484359 823.55517486 382.09780089 826 366.5 C828.56445521 350.13896818 831.13552549 333.77902791 833.72460938 317.421875 C835.32937844 307.28327103 836.91666083 297.1419688 838.5 287 C841.25808117 269.33330309 841.25808117 269.33330309 842.625 260.6875 C842.72642807 260.04592453 842.82785614 259.40434906 842.93235779 258.74333191 C843.49040481 255.21519839 844.04987815 251.68731232 844.61254883 248.15991211 C846.14021354 238.56439905 847.62263577 228.96222186 849.08756256 219.35694695 C849.41155799 217.23299839 849.73595691 215.10911185 850.06048584 212.98524475 C850.28055847 211.5448507 850.5006309 210.10445661 850.72070312 208.6640625 C850.83068256 207.94428443 850.940662 207.22450636 851.05397415 206.48291683 C851.61789415 202.79091009 852.1806921 199.09873765 852.74145508 195.40625 C853.29339826 191.77238944 853.84834125 188.13899782 854.40524101 184.50589371 C854.61401842 183.1402852 854.82172727 181.77451283 855.02827644 180.40856552 C856.02449337 173.82354831 857.07211681 167.29775488 858.59013367 160.81158447 C859.10611892 158.53096078 859.43810831 156.255091 859.7109375 153.93359375 C859.87335938 152.60569824 859.87335938 152.60569824 860.0390625 151.25097656 C860.20535156 149.85830566 860.20535156 149.85830566 860.375 148.4375 C861.78146743 137.1674472 863.61299858 125.99443254 865.52685547 114.80126953 C866.35194414 109.91630184 867.11973938 105.0226172 867.88415527 100.12785339 C868.56159839 95.79217772 869.24488785 91.45752146 869.93519592 87.12387085 C871.35269296 78.20681885 872.72627228 69.28324386 874.08749962 60.35745049 C874.41151312 58.23329217 874.73594002 56.10919739 875.0605011 53.98512268 C875.28056851 52.5447693 875.50063585 51.1044159 875.72070312 49.6640625 C875.83068225 48.94428695 875.94066137 48.22451139 876.0539732 47.48292446 C876.61789323 43.79091513 877.18069171 40.09874018 877.74145508 36.40625 C878.29339826 32.77238944 878.84834125 29.13899782 879.40524101 25.50589371 C879.61401842 24.1402852 879.82172727 22.77451283 880.02827644 21.40856552 C880.31687101 19.50094871 880.60966348 17.59396846 880.90258789 15.68701172 C881.06674698 14.6095871 881.23090607 13.53216248 881.40003967 12.42208862 C882.13057432 8.25522261 883.08229306 4.12968125 884 0 C955.94 0 1027.88 0 1102 0 C1101.32121156 6.78788443 1100.51686902 13.36801602 1099.3203125 20.05859375 C1099.15190353 21.01584854 1098.98349457 21.97310333 1098.8099823 22.95936584 C1098.25242724 26.11948613 1097.68894818 29.27851481 1097.125 32.4375 C1096.72678499 34.68358991 1096.32859212 36.92968375 1095.93041992 39.17578125 C1092.59725015 57.91252275 1089.1067693 76.61924497 1085.59460449 95.32312012 C1082.91559891 109.5944797 1080.27276178 123.86603182 1077.875 138.1875 C1075.64396873 151.51132207 1073.19610705 164.78821728 1070.6875 178.0625 C1067.55727915 194.63396639 1064.48247282 211.21376086 1061.5 227.8125 C1061.31464691 228.84365936 1061.12929382 229.87481873 1060.93832397 230.93722534 C1058.85214347 242.55431416 1056.7888989 254.17530196 1054.75 265.80078125 C1054.00007722 270.07553439 1053.25011283 274.35028021 1052.5 278.625 C1052.31404266 279.68520355 1052.12808533 280.7454071 1051.93649292 281.83773804 C1049.07994551 298.10402101 1046.08186228 314.33961068 1043.00488281 330.56549072 C1039.85712871 347.18561863 1036.89696062 363.83445796 1034 380.5 C1030.76167166 399.12935126 1027.40504903 417.72953696 1023.88137817 436.30697632 C1020.742707 452.86745808 1017.77485029 469.45387898 1014.86984253 486.05682373 C1012.33189335 500.55465466 1009.71927017 515.03509655 1007 529.5 C1003.92265416 545.87130462 1001.00094722 562.26620173 998.13241577 578.67529297 C994.76335762 597.92180269 991.19970859 617.12901411 987.59268188 636.33218384 C984.78852238 651.2707674 982.04659487 666.21215189 979.53765869 681.203125 C977.41988636 693.83402863 975.07020181 706.41661883 972.6875 719 C969.52773921 735.68867608 966.48718852 752.393533 963.5625 769.125 C960.4774643 786.76981474 957.28512051 804.39134275 954 822 C950.49640152 840.78118652 947.10738134 859.5789793 943.81298828 878.39794922 C941.14292098 893.64181817 938.37788208 908.86431703 935.51574707 924.07324219 C932.18116977 941.80602083 929.05231476 959.57354443 925.96875 977.3515625 C925.6067804 979.42578292 925.24480169 981.50000175 924.8828125 983.57421875 C924.72168976 984.51186569 924.56056702 985.44951263 924.39456177 986.41557312 C924.24002533 987.29896866 924.08548889 988.1823642 923.92626953 989.0925293 C923.79495636 989.85107712 923.66364319 990.60962494 923.52835083 991.39115906 C922.80676334 994.95414575 921.88169498 998.47322008 921 1002 C838.83 1002 756.66 1002 672 1002 C664.07969484 970.31877934 664.07969484 970.31877934 660.52734375 954.67578125 C658.90162669 947.54779994 657.23160635 940.430422 655.5625 933.3125 C653.48956881 924.46363949 651.45577082 915.60754227 649.47412109 906.73779297 C646.41635104 893.05255759 643.18852705 879.41794401 639.85217285 865.79803467 C636.71008942 852.97022354 633.68581799 840.12014274 630.74462891 827.24462891 C629.36717902 821.24256037 627.96378769 815.2465396 626.5625 809.25 C626.26972168 807.99646729 625.97694336 806.74293457 625.67529297 805.45141602 C625.08066551 802.90573857 624.48593855 800.36008436 623.89111328 797.81445312 C622.42607355 791.54328031 620.963132 785.27161813 619.5 779 C618.91667696 776.4999976 618.33334362 773.9999976 617.75 771.5 C616.58333333 766.5 615.41666667 761.5 614.25 756.5 C613.96125 755.26258057 613.6725 754.02516113 613.375 752.75024414 C612.79152261 750.24946395 612.20818934 747.74865012 611.625 745.24780273 C610.17004891 739.00945637 608.71262295 732.77170868 607.25 726.53515625 C604.61355529 715.28205655 601.99693055 704.02626689 599.47631836 692.74658203 C596.41709016 679.05857562 593.189248 665.42088714 589.85217285 651.79803467 C586.71008942 638.97022354 583.68581799 626.12014274 580.74462891 613.24462891 C579.36717902 607.24256037 577.96378769 601.2465396 576.5625 595.25 C576.26972168 593.99646729 575.97694336 592.74293457 575.67529297 591.45141602 C575.08066551 588.90573857 574.48593855 586.36008436 573.89111328 583.81445312 C572.42607355 577.54328031 570.963132 571.27161813 569.5 565 C568.91667696 562.4999976 568.33334362 559.9999976 567.75 557.5 C564.25 542.5 564.25 542.5 563.3737793 538.74365234 C562.79517464 536.26465714 562.21591926 533.78581371 561.63598633 531.30712891 C560.26493568 525.4435598 558.90065517 519.57864702 557.55941772 513.70819092 C556.92467169 510.93182078 556.28621302 508.15631022 555.64746094 505.38085938 C555.19754311 503.41879733 554.7530064 501.45550381 554.30859375 499.4921875 C554.0353125 498.30625 553.76203125 497.1203125 553.48046875 495.8984375 C553.12311646 494.33101807 553.12311646 494.33101807 552.75854492 492.73193359 C552.07405259 490.26670372 551.23948331 488.22820218 550 486 C545.80902696 502.95929123 541.74021385 519.93515828 538 537 C535.32160999 549.21826613 532.48902723 561.38589619 529.5 573.53173828 C526.84817724 584.32289593 524.37976912 595.14577502 522 606 C519.42469992 617.74272445 516.73370514 629.44792786 513.875 641.125 C513.70644501 641.81391327 513.53789001 642.50282654 513.36422729 643.21261597 C513.11323776 644.23840256 513.11323776 644.23840256 512.85717773 645.28491211 C512.52583481 646.63914937 512.19453538 647.99339727 511.86328125 649.34765625 C511.70256638 650.00460983 511.5418515 650.66156342 511.37626648 651.33842468 C508.04909152 664.96675971 504.96797778 678.65291049 501.91015625 692.34375 C501.14885673 695.75009386 500.3871006 699.15633528 499.625 702.5625 C499.43286926 703.42162994 499.24073853 704.28075989 499.04278564 705.16592407 C496.30395581 717.39637402 493.43748696 729.58807028 490.44342041 741.7583313 C487.62484689 753.23036804 485.02949649 764.74302988 482.49972534 776.28186035 C479.98498362 787.73826413 477.3027903 799.14266558 474.5 810.53173828 C471.84817902 821.32288869 469.37952813 832.14572666 467 843 C464.32145796 855.21823229 461.48902792 867.38589339 458.5 879.53173828 C455.84817902 890.32288869 453.37952813 901.14572666 451 912 C448.32368358 924.20808006 445.49580599 936.36628293 442.50704956 948.50152588 C439.31102887 961.49548948 436.38342425 974.54311021 433.52539062 987.61523438 C433.36320541 988.35504547 433.2010202 989.09485657 433.03392029 989.85708618 C432.59451543 991.863815 432.15764461 993.87109821 431.72094727 995.87841797 C431 999 431 999 430 1002 C347.83 1002 265.66 1002 181 1002 C179.15598963 994.0092884 177.39825252 986.14673627 176.01953125 978.0859375 C175.84588547 977.08990509 175.67223969 976.09387268 175.49333191 975.06765747 C175.12264323 972.9407768 174.75339554 970.81364455 174.38549805 968.6862793 C173.39706408 962.97425124 172.3962856 957.26439245 171.39453125 951.5546875 C171.19223907 950.4012384 170.9899469 949.24778931 170.78152466 948.05938721 C168.92807053 937.52552281 166.97842813 927.01099078 165 916.5 C161.87418264 899.87854999 158.9103069 883.23209658 155.99563599 866.57241821 C153.07942814 849.9219234 150.018033 833.30337692 146.87039185 816.69522095 C143.93705586 801.20026027 141.17663085 785.681817 138.50897217 770.13909912 C135.99386191 755.50377269 133.32755488 740.90258313 130.5625 726.3125 C127.44359088 709.85310587 124.44748168 693.37700656 121.5625 676.875 C118.47735041 659.23020124 115.28486438 641.60870809 112 624 C108.70040373 606.30712602 105.48440135 588.60231085 102.375 570.875 C99.64294749 555.30530684 96.8928603 539.73966163 94.0625 524.1875 C93.90198151 523.30528778 93.74146301 522.42307556 93.57608032 521.51412964 C91.60411496 510.68758313 89.60678537 499.8658569 87.59375 489.046875 C86.74986622 484.51044154 85.90607148 479.97399155 85.0625 475.4375 C84.85251373 474.30844238 84.64252747 473.17938477 84.42617798 472.01611328 C81.2808679 455.08816521 78.22766332 438.14571765 75.25 421.1875 C75.06107178 420.11157593 74.87214355 419.03565186 74.67749023 417.92712402 C73.94436632 413.75109973 73.2113504 409.5750565 72.47848511 405.39898682 C69.33538289 387.50536593 66.05153929 369.63794064 62.7265625 351.77734375 C61.87979403 347.22663947 61.03345261 342.67585601 60.1875 338.125 C59.97396881 336.97644531 59.76043762 335.82789063 59.54043579 334.64453125 C56.35755383 317.50701899 53.26412951 300.35547265 50.25 283.1875 C50.06125305 282.11257294 49.8725061 281.03764587 49.67803955 279.93014526 C48.94472618 275.75305728 48.21150805 271.57595258 47.47845459 267.39881897 C44.3353683 249.5052529 41.05151771 231.63788685 37.7265625 213.77734375 C36.87981934 209.22663478 36.03350149 204.67584691 35.1875 200.125 C34.97330414 198.97312195 34.75910828 197.8212439 34.53842163 196.63446045 C31.1959764 178.64251229 27.96954467 160.63254369 24.81381226 142.60699463 C22.14265349 127.35676716 19.37342639 112.12858264 16.51373291 96.91265869 C13.2614422 79.59066667 10.1853645 62.23915125 7.14453125 44.87890625 C6.96708374 43.86647858 6.78963623 42.8540509 6.60681152 41.8109436 C6.25735126 39.81607093 5.90846418 37.82109775 5.56018066 35.82601929 C4.68061716 30.80437017 3.78013869 25.7876285 2.84570312 20.77587891 C2.65933289 19.77196609 2.47296265 18.76805328 2.28094482 17.73371887 C1.92652032 15.83184846 1.56838823 13.93066378 1.20587158 12.03031921 C1.04737732 11.17895889 0.88888306 10.32759857 0.72558594 9.45043945 C0.58505798 8.70889114 0.44453003 7.96734283 0.29974365 7.20332336 C0 5 0 5 0 0 Z " fill="#21C45D" transform="translate(2210,1307)"/>
<path d="M0 0 C238.37395616 0 238.37395616 0 285.75 46.3125 C291.72637806 52.33681692 296.48366739 58.80237327 301 66 C301.60199219 66.9178125 302.20398437 67.835625 302.82421875 68.78125 C320.4869857 97.04167711 327.03331598 134.02600457 327.203125 166.90625 C327.21009399 167.82082977 327.21706299 168.73540955 327.22424316 169.67770386 C327.24155507 172.61851658 327.24796493 175.55913842 327.25 178.5 C327.25100708 179.50621399 327.25201416 180.51242798 327.25305176 181.5491333 C327.24242388 197.25432159 326.52017298 212.47402944 324 228 C323.69512553 230.03643035 323.39044063 232.07288909 323.0859375 234.109375 C317.57722997 269.4777813 302.51050465 305.85392074 273.02612305 327.84326172 C197.52474516 382.32879215 80.39985384 364 0 364 C0 243.88 0 123.76 0 0 Z " fill="#09090B" transform="translate(1488,1195)"/>
<path d="M0 0 C764.94 0 1529.88 0 2318 0 C2318 764.61 2318 1529.22 2318 2317 C1553.06 2317 788.12 2317 0 2317 C0 1552.39 0 787.78 0 0 Z M7 7 C7 766.99 7 1526.98 7 2310 C766.99 2310 1526.98 2310 2310 2310 C2310 1550.01 2310 790.02 2310 7 C1550.01 7 790.02 7 7 7 Z " fill="#333333" transform="translate(1051,497)"/>
</svg>
